<svg xmlns="http://www.w3.org/2000/svg" width="144" height="138" viewBox="0 0 144 138">
<g>
<path d="M 40.50 53.04 C38.30,53.05 35.83,53.26 35.00,53.51 C33.45,53.97 30.78,52.76 30.89,51.65 C30.92,51.30 30.77,50.45 30.55,49.76 C30.33,49.07 29.25,43.56 28.15,37.52 C25.94,25.40 26.34,23.42 30.64,25.05 C34.31,26.45 34.61,26.32 36.89,22.46 L 38.98 18.92 L 42.73 21.46 L 46.48 24.01 L 49.74 20.45 C53.00,16.89 53.75,16.81 57.11,19.68 C58.87,21.18 62.00,20.49 62.00,18.58 C62.00,17.92 62.62,16.54 63.37,15.51 C64.68,13.72 64.93,13.81 68.59,17.26 C71.44,19.95 72.73,22.21 73.58,25.97 C74.64,30.68 73.75,34.12 72.39,30.56 C71.72,28.83 69.35,28.45 68.83,29.99 C68.65,30.54 65.12,31.43 61.00,31.96 C39.07,34.81 30.78,36.02 30.03,36.48 C29.26,36.96 30.28,43.61 31.28,44.61 C31.64,44.98 54.56,41.66 66.31,39.53 L 69.12 39.03 L 66.89 42.15 C65.67,43.87 64.09,46.90 63.38,48.89 C62.67,50.87 62.07,51.66 62.04,50.64 C62.02,49.44 61.49,48.98 60.54,49.34 C59.74,49.65 56.26,50.49 52.79,51.20 L 46.50 52.50 L 52.00 53.14 C57.10,53.73 57.03,53.75 51.00,53.40 C47.42,53.19 42.70,53.03 40.50,53.04 ZM 28.00 32.08 C28.00,32.59 28.71,33.00 29.57,33.00 C31.86,33.00 70.24,25.10 70.83,24.50 C72.62,22.71 68.06,23.10 53.77,25.94 C29.11,30.83 28.00,31.10 28.00,32.08 Z" fill="rgb(51,67,130)"/>
<path d="M 40.50 53.04 C42.70,53.03 47.42,53.19 51.00,53.40 C57.03,53.75 57.10,53.73 52.00,53.14 L 49.81 52.88 L 54.25 52.93 C61.36,52.99 62.00,52.83 62.00,51.00 C62.00,50.64 61.99,50.29 61.97,50.00 C62.01,50.19 62.04,50.40 62.04,50.64 C62.07,51.66 62.67,50.87 63.38,48.89 C64.09,46.90 65.67,43.87 66.89,42.15 L 68.88 39.35 C73.87,38.69 75.14,37.70 74.56,35.36 C74.23,34.06 74.37,33.00 74.86,33.00 C75.36,33.00 76.00,33.90 76.29,35.00 C76.71,36.59 77.65,37.00 80.96,37.00 C87.59,37.00 92.62,40.47 95.80,47.24 C100.18,56.55 101.10,55.08 100.78,39.26 L 100.50 25.52 L 97.50 24.88 C94.59,24.26 94.62,24.23 98.25,24.12 L 102.00 24.00 L 102.00 53.00 L 118.00 53.00 L 118.02 56.25 C118.03,58.04 117.50,72.89 116.84,89.25 L 115.65 119.00 L 23.04 119.00 L 22.58 116.75 C22.33,115.51 21.85,100.94 21.52,84.37 C21.49,82.48 21.45,80.69 21.41,79.02 C21.02,59.75 20.91,54.69 23.06,53.40 C23.83,52.94 24.88,52.96 26.30,52.99 C26.65,52.99 27.02,53.00 27.42,53.00 C29.42,53.00 30.63,52.82 31.16,52.35 C31.87,53.20 33.78,53.87 35.00,53.51 C35.83,53.26 38.30,53.05 40.50,53.04 ZM 55.88 116.25 C89.26,117.01 103.00,116.95 103.00,116.06 C103.00,115.54 104.69,114.98 106.75,114.81 C110.24,114.52 110.52,114.26 110.81,111.00 C110.97,109.07 111.71,107.04 112.43,106.48 C113.41,105.72 113.92,99.95 114.42,83.98 C114.78,72.17 115.34,60.75 115.65,58.61 L 116.22 54.71 L 95.36 55.34 C83.89,55.68 66.68,55.97 57.12,55.98 L 39.73 56.00 L 40.38 71.75 C40.74,80.41 41.31,93.90 41.65,101.72 L 42.27 115.95 ZM 24.74 109.75 C25.00,112.09 25.35,114.00 25.51,114.00 C25.67,114.00 27.00,111.97 28.45,109.50 C29.90,107.03 31.70,105.00 32.46,105.00 C33.22,105.00 34.81,106.57 36.00,108.50 C37.19,110.43 38.40,112.00 38.69,112.00 C39.30,112.00 38.20,70.23 37.37,61.75 L 36.80 56.00 L 23.94 56.00 L 24.10 80.75 C24.19,94.36 24.48,107.41 24.74,109.75 ZM 80.44 50.25 C81.01,52.88 81.31,53.00 87.02,53.00 C93.89,53.00 94.26,52.32 90.49,46.78 C88.19,43.39 83.59,41.02 79.25,41.01 L 79.19 41.01 C78.68,41.00 78.35,41.00 78.20,41.16 C77.92,41.45 78.17,42.24 78.87,44.45 L 78.92 44.60 C79.42,46.20 80.11,48.74 80.44,50.25 ZM 64.00 51.15 C64.00,54.09 65.78,53.30 66.49,50.04 C67.81,44.05 77.03,38.79 83.42,40.39 C87.11,41.32 91.76,45.69 93.15,49.55 C94.55,53.42 97.61,54.54 96.44,50.75 C94.94,45.89 92.78,42.88 88.98,40.37 C85.59,38.12 84.24,37.82 79.47,38.21 C76.08,38.49 72.86,39.45 71.21,40.68 C67.80,43.21 64.00,48.72 64.00,51.15 ZM 67.53 50.75 C66.89,52.91 67.11,53.00 72.93,53.00 C76.27,53.00 79.00,52.75 79.00,52.44 C79.00,49.71 76.49,43.00 75.46,43.00 C73.29,43.00 71.00,44.15 71.00,45.25 C71.00,45.81 70.37,46.78 69.60,47.39 C68.83,48.00 67.90,49.51 67.53,50.75 ZM 28.00 115.40 C28.00,115.73 30.25,116.00 33.01,116.00 L 38.02 116.00 L 35.76 112.51 C34.52,110.59 33.03,109.02 32.47,109.01 C31.51,109.00 28.00,114.03 28.00,115.40 ZM 58.00 64.50 C56.66,66.11 54.00,66.55 54.00,65.15 C54.00,63.92 57.18,61.33 59.62,60.59 C62.40,59.75 67.00,61.54 67.00,63.48 C67.00,65.19 65.44,65.52 64.50,64.00 C63.56,62.48 59.41,62.80 58.00,64.50 ZM 23.45 46.09 C23.25,46.41 23.17,46.66 22.99,46.77 C22.62,47.00 21.83,46.55 18.46,44.66 C17.96,44.38 17.39,44.06 16.76,43.71 C11.04,40.51 9.67,39.00 12.48,39.00 C14.74,39.00 24.09,45.05 23.45,46.09 ZM 127.06 76.88 C121.77,79.15 120.00,79.48 120.00,78.18 C120.00,77.43 129.63,73.00 131.27,73.00 C133.55,73.00 131.34,75.04 127.06,76.88 ZM 105.76 63.25 C105.32,64.58 96.89,65.56 95.74,64.41 C94.26,62.93 96.34,62.00 101.14,62.00 C104.71,62.00 106.05,62.36 105.76,63.25 ZM 128.25 83.44 C126.19,83.81 123.75,84.33 122.83,84.59 C121.07,85.11 119.39,83.49 120.79,82.63 C121.24,82.35 123.95,81.81 126.81,81.43 C132.87,80.63 134.14,82.40 128.25,83.44 ZM 24.00 41.01 C24.00,42.66 22.59,42.07 20.92,39.72 C16.55,33.60 15.76,32.00 17.13,32.04 C18.53,32.08 24.00,39.23 24.00,41.01 ZM 61.56 76.90 C60.55,78.53 58.03,78.23 57.32,76.40 C56.47,74.18 59.13,72.71 60.87,74.44 C61.62,75.19 61.93,76.30 61.56,76.90 ZM 102.75 76.25 C102.19,77.92 99.36,78.40 98.48,76.97 C98.09,76.34 98.24,75.36 98.82,74.78 C100.16,73.44 103.30,74.61 102.75,76.25 ZM 62.94 40.12 C56.75,41.18 48.83,42.40 42.45,43.30 C44.08,43.06 45.82,42.79 47.61,42.50 C53.38,41.57 59.14,40.68 62.94,40.12 ZM 54.00 50.97 L 47.46 52.61 L 46.50 52.50 L 52.79 51.20 C53.39,51.08 53.98,50.95 54.56,50.83 C54.38,50.87 54.19,50.92 54.00,50.97 ZM 28.95 41.84 C28.68,40.47 28.40,39.00 28.13,37.52 C26.94,30.95 26.52,27.36 27.06,25.71 C26.52,27.36 26.95,30.95 28.15,37.52 C28.42,39.01 28.70,40.48 28.95,41.84 ZM 60.94 49.24 C60.85,49.26 60.75,49.28 60.64,49.31 C60.74,49.28 60.85,49.25 60.94,49.24 Z" fill="rgb(63,47,26)"/>
<path d="M 62.94 40.12 C59.14,40.68 53.38,41.57 47.61,42.50 C45.82,42.79 44.08,43.06 42.45,43.30 C36.20,44.19 31.44,44.78 31.28,44.61 C30.28,43.61 29.26,36.96 30.03,36.48 C30.78,36.02 39.07,34.81 61.00,31.96 C65.12,31.43 68.65,30.54 68.83,29.99 C69.07,29.28 69.70,28.98 70.37,29.03 C69.80,29.18 69.41,29.87 69.71,31.00 C70.00,32.12 69.74,33.00 69.12,33.00 C67.92,33.00 67.63,37.73 68.57,39.12 L 66.31 39.53 C65.27,39.72 64.14,39.92 62.94,40.12 ZM 67.53 50.75 C67.90,49.51 68.83,48.00 69.60,47.39 C70.37,46.78 71.00,45.81 71.00,45.25 C71.00,44.61 71.77,43.96 72.84,43.52 C71.68,44.07 71.00,45.02 71.00,46.21 C71.00,47.60 71.47,48.03 72.54,47.62 C73.43,47.28 74.27,47.66 74.54,48.52 C74.79,49.33 75.21,50.67 75.47,51.50 C75.65,52.09 76.33,52.58 77.04,52.85 C75.96,52.94 74.51,53.00 72.93,53.00 C67.11,53.00 66.89,52.91 67.53,50.75 ZM 54.00 50.97 C54.19,50.92 54.38,50.87 54.56,50.83 C57.37,50.22 59.88,49.60 60.54,49.34 C60.58,49.33 60.61,49.32 60.64,49.31 C60.75,49.28 60.85,49.26 60.94,49.24 C61.47,49.16 61.82,49.42 61.97,50.00 C61.99,50.29 62.00,50.64 62.00,51.00 C62.00,52.83 61.36,52.99 54.25,52.93 L 49.81 52.88 L 47.46 52.61 ZM 90.50 25.00 C90.16,25.55 88.56,26.00 86.94,26.00 C85.32,26.00 84.00,25.55 84.00,25.00 C84.00,24.45 85.60,24.00 87.56,24.00 C89.68,24.00 90.87,24.40 90.50,25.00 ZM 74.51 35.25 C74.21,34.01 74.37,33.00 74.86,33.00 C74.37,33.00 74.23,34.06 74.56,35.36 C74.93,36.84 74.55,37.78 72.98,38.43 C74.55,37.60 74.89,36.81 74.51,35.25 Z" fill="rgb(73,147,222)"/>
<path d="M 90.50 25.00 C90.71,24.67 90.42,24.39 89.77,24.22 C90.77,24.17 91.86,24.15 93.00,24.14 L 98.28 24.12 L 98.25 24.12 C94.62,24.23 94.59,24.26 97.50,24.88 L 100.50 25.52 L 100.78 39.26 C101.10,55.08 100.18,56.55 95.80,47.24 C94.05,43.51 91.74,40.79 88.91,39.09 C89.56,38.57 90.00,36.18 90.00,32.50 C90.00,28.92 89.59,26.00 89.09,26.00 C88.20,26.00 87.02,36.77 87.75,38.25 C87.80,38.35 87.85,38.45 87.90,38.54 C85.84,37.52 83.52,37.00 80.96,37.00 C77.65,37.00 76.71,36.59 76.29,35.00 C76.00,33.90 75.36,33.00 74.86,33.00 C74.44,33.00 74.26,33.73 74.41,34.71 C74.16,34.07 73.82,33.31 73.39,32.40 C73.30,32.23 73.22,32.06 73.13,31.90 C74.03,32.69 74.43,29.74 73.58,25.97 C73.54,25.78 73.49,25.59 73.45,25.40 C74.04,25.94 75.41,26.00 78.50,26.00 C81.53,26.00 84.00,25.59 84.00,25.09 C84.00,25.08 84.00,25.07 84.01,25.06 C84.10,25.58 85.38,26.00 86.94,26.00 C88.56,26.00 90.16,25.55 90.50,25.00 ZM 62.15 88.50 C61.93,90.69 51.99,90.22 49.55,87.90 C48.96,87.34 49.08,87.00 49.87,87.00 C50.68,87.00 50.91,86.28 50.50,85.00 C50.03,83.52 50.32,83.00 51.62,83.00 C53.26,83.00 53.25,82.91 51.54,81.65 C48.69,79.57 51.05,79.00 57.05,80.34 C62.80,81.61 62.83,81.66 62.15,88.50 ZM 109.29 89.32 C108.86,89.59 106.36,90.13 103.75,90.52 C99.56,91.14 98.98,91.01 98.85,89.36 C98.58,86.04 98.46,85.52 97.71,84.32 C96.71,82.72 97.72,82.24 103.75,81.44 C108.38,80.83 108.88,80.94 108.78,82.63 C108.71,83.66 108.98,85.47 109.37,86.67 C109.76,87.86 109.73,89.05 109.29,89.32 ZM 80.44 50.25 C80.11,48.74 79.42,46.20 78.92,44.60 L 78.87 44.45 C78.17,42.24 77.92,41.45 78.20,41.16 C78.35,41.00 78.68,41.00 79.19,41.01 L 79.25 41.01 C82.37,41.02 85.62,42.24 88.06,44.19 C87.41,44.00 87.00,45.62 87.00,48.42 C87.00,50.87 87.42,52.88 87.95,52.99 C87.66,53.00 87.34,53.00 87.02,53.00 C81.31,53.00 81.01,52.88 80.44,50.25 ZM 88.06 52.99 C88.58,52.88 89.00,51.35 89.00,49.50 C89.00,47.58 89.03,45.67 89.07,45.28 C89.08,45.21 89.07,45.14 89.06,45.07 C89.60,45.60 90.08,46.17 90.49,46.78 C94.06,52.03 93.91,52.91 88.06,52.99 ZM 84.77 40.86 C89.08,42.22 92.58,45.47 93.63,49.66 C94.33,52.47 96.00,52.77 96.00,50.10 C96.00,49.05 94.03,46.02 91.63,43.37 C90.04,41.62 89.03,40.50 88.08,39.79 C88.36,39.97 88.67,40.16 88.98,40.37 C92.78,42.88 94.94,45.89 96.44,50.75 C97.61,54.54 94.55,53.42 93.15,49.55 C91.93,46.15 88.17,42.35 84.77,40.86 ZM 86.81 39.07 C85.48,38.54 83.85,38.53 80.71,38.52 C78.73,38.51 77.21,38.58 75.95,38.76 C77.06,38.50 78.26,38.31 79.47,38.21 C83.09,37.91 84.74,38.02 86.81,39.07 ZM 68.59 17.26 C68.27,16.96 67.97,16.68 67.70,16.43 C68.05,16.74 68.43,17.10 68.86,17.49 C71.44,19.88 73.00,22.20 73.00,23.66 C73.00,23.73 73.00,23.79 73.00,23.85 C72.14,21.28 70.86,19.40 68.59,17.26 ZM 72.14 42.92 C73.89,41.68 75.81,40.75 77.58,40.42 C78.18,40.31 78.78,40.23 79.38,40.20 C76.90,40.50 74.34,41.50 72.14,42.92 ZM 72.51 30.88 C71.82,29.88 71.09,29.24 70.53,29.04 C71.28,29.15 72.05,29.68 72.39,30.56 C72.43,30.68 72.47,30.78 72.51,30.88 ZM 71.31 40.60 C69.42,42.01 67.44,44.25 66.02,46.40 C67.43,44.26 69.37,42.04 71.21,40.68 C71.24,40.65 71.28,40.63 71.31,40.60 ZM 68.06 35.33 C68.19,34.06 68.55,33.00 69.12,33.00 C68.57,33.00 68.20,34.06 68.06,35.33 ZM 63.36 15.52 C62.61,16.55 62.00,17.93 62.00,18.58 C62.00,17.92 62.61,16.55 63.36,15.52 Z" fill="rgb(210,96,60)"/>
<path d="M 55.88 116.25 L 42.27 115.95 L 41.65 101.72 C41.31,93.90 40.74,80.41 40.38,71.75 L 39.73 56.00 L 57.12 55.98 C66.68,55.97 83.89,55.68 95.36,55.34 L 116.22 54.71 L 115.65 58.61 C115.34,60.75 114.78,72.17 114.42,83.98 C113.92,99.95 113.41,105.72 112.43,106.48 C111.71,107.04 110.97,109.07 110.81,111.00 C110.52,114.26 110.24,114.52 106.75,114.81 C104.69,114.98 103.00,115.54 103.00,116.06 C103.00,116.95 89.26,117.01 55.88,116.25 ZM 24.74 109.75 C24.48,107.41 24.19,94.36 24.10,80.75 L 23.94 56.00 L 36.80 56.00 L 37.37 61.75 C38.20,70.23 39.30,112.00 38.69,112.00 C38.40,112.00 37.19,110.43 36.00,108.50 C34.81,106.57 33.22,105.00 32.46,105.00 C31.70,105.00 29.90,107.03 28.45,109.50 C27.00,111.97 25.67,114.00 25.51,114.00 C25.35,114.00 25.00,112.09 24.74,109.75 ZM 62.15 88.50 C62.83,81.66 62.80,81.61 57.05,80.34 C51.05,79.00 48.69,79.57 51.54,81.65 C53.25,82.91 53.26,83.00 51.62,83.00 C50.32,83.00 50.03,83.52 50.50,85.00 C50.91,86.28 50.68,87.00 49.87,87.00 C49.08,87.00 48.96,87.34 49.55,87.90 C51.99,90.22 61.93,90.69 62.15,88.50 ZM 109.29 89.32 C109.73,89.05 109.76,87.86 109.37,86.67 C108.98,85.47 108.71,83.66 108.78,82.63 C108.88,80.94 108.38,80.83 103.75,81.44 C97.72,82.24 96.71,82.72 97.71,84.32 C98.46,85.52 98.58,86.04 98.85,89.36 C98.98,91.01 99.56,91.14 103.75,90.52 C106.36,90.13 108.86,89.59 109.29,89.32 ZM 64.00 51.15 C64.00,50.02 64.81,48.24 66.02,46.40 L 66.02 46.40 C67.44,44.25 69.42,42.01 71.31,40.60 C72.38,39.85 74.04,39.20 75.95,38.76 C77.21,38.58 78.73,38.51 80.71,38.52 C83.85,38.53 85.48,38.54 86.81,39.07 C87.21,39.27 87.63,39.51 88.08,39.79 C89.03,40.50 90.04,41.62 91.63,43.37 C94.03,46.02 96.00,49.05 96.00,50.10 C96.00,52.77 94.33,52.47 93.63,49.66 C92.58,45.47 89.08,42.22 84.77,40.86 C84.31,40.66 83.86,40.50 83.42,40.39 C82.15,40.07 80.78,40.02 79.38,40.20 C78.78,40.23 78.18,40.31 77.58,40.42 C75.81,40.75 73.89,41.68 72.14,42.92 C69.30,44.76 67.09,47.33 66.49,50.04 C65.78,53.30 64.00,54.09 64.00,51.15 ZM 28.00 115.40 C28.00,114.03 31.51,109.00 32.47,109.01 C33.03,109.02 34.52,110.59 35.76,112.51 L 38.02 116.00 L 33.01 116.00 C30.25,116.00 28.00,115.73 28.00,115.40 ZM 77.04 81.07 C78.41,83.64 83.57,83.68 84.93,81.13 C86.29,78.59 85.42,78.00 80.33,78.00 C75.65,78.00 75.48,78.16 77.04,81.07 ZM 58.00 64.50 C59.41,62.80 63.56,62.48 64.50,64.00 C65.44,65.52 67.00,65.19 67.00,63.48 C67.00,61.54 62.40,59.75 59.62,60.59 C57.18,61.33 54.00,63.92 54.00,65.15 C54.00,66.55 56.66,66.11 58.00,64.50 ZM 105.76 63.25 C106.05,62.36 104.71,62.00 101.14,62.00 C96.34,62.00 94.26,62.93 95.74,64.41 C96.89,65.56 105.32,64.58 105.76,63.25 ZM 61.56 76.90 C61.93,76.30 61.62,75.19 60.87,74.44 C59.13,72.71 56.47,74.18 57.32,76.40 C58.03,78.23 60.55,78.53 61.56,76.90 ZM 102.75 76.25 C103.30,74.61 100.16,73.44 98.82,74.78 C98.24,75.36 98.09,76.34 98.48,76.97 C99.36,78.40 102.19,77.92 102.75,76.25 Z" fill="rgb(248,199,9)"/>
<path d="M 0.00 69.00 L 0.00 0.00 L 72.00 0.00 L 144.00 0.00 L 144.00 69.00 L 144.00 138.00 L 72.00 138.00 L 0.00 138.00 L 0.00 69.00 ZM 116.84 89.25 C117.50,72.89 118.03,58.04 118.02,56.25 L 118.00 53.00 L 110.00 53.00 L 102.00 53.00 L 102.00 38.55 L 102.00 24.10 L 93.00 24.14 C88.05,24.17 84.00,24.59 84.00,25.09 C84.00,25.59 81.53,26.00 78.50,26.00 C73.40,26.00 73.00,25.83 73.00,23.66 C73.00,22.20 71.44,19.88 68.86,17.49 C64.94,13.86 64.65,13.76 63.36,15.52 C62.61,16.55 62.00,17.92 62.00,18.58 C62.00,20.49 58.87,21.18 57.11,19.68 C53.75,16.81 53.00,16.89 49.74,20.45 L 46.48 24.01 L 42.73 21.46 L 38.98 18.92 L 36.89 22.46 C34.61,26.32 34.31,26.45 30.64,25.05 C26.34,23.42 25.94,25.40 28.13,37.52 C29.22,43.56 30.51,49.24 31.00,50.14 C32.17,52.32 31.33,53.00 27.42,53.00 C20.48,53.00 20.86,51.00 21.52,84.37 C21.85,100.94 22.33,115.51 22.58,116.75 L 23.04 119.00 L 69.34 119.00 L 115.65 119.00 L 116.84 89.25 ZM 128.25 83.44 C134.14,82.40 132.87,80.63 126.81,81.43 C123.95,81.81 121.24,82.35 120.79,82.63 C119.39,83.49 121.07,85.11 122.83,84.59 C123.75,84.33 126.19,83.81 128.25,83.44 ZM 127.06 76.88 C131.34,75.04 133.55,73.00 131.27,73.00 C129.63,73.00 120.00,77.43 120.00,78.18 C120.00,79.48 121.77,79.15 127.06,76.88 ZM 23.45 46.09 C24.09,45.05 14.74,39.00 12.48,39.00 C9.67,39.00 11.04,40.51 16.76,43.71 C23.51,47.49 22.75,47.22 23.45,46.09 ZM 24.00 41.01 C24.00,39.23 18.53,32.08 17.13,32.04 C15.76,32.00 16.55,33.60 20.92,39.72 C22.59,42.07 24.00,42.66 24.00,41.01 ZM 77.04 81.07 C75.48,78.16 75.65,78.00 80.33,78.00 C85.42,78.00 86.29,78.59 84.93,81.13 C83.57,83.68 78.41,83.64 77.04,81.07 ZM 75.47 51.50 C75.21,50.67 74.79,49.33 74.54,48.52 C74.27,47.66 73.43,47.28 72.54,47.62 C71.47,48.03 71.00,47.60 71.00,46.21 C71.00,44.28 72.78,43.00 75.46,43.00 C76.49,43.00 79.00,49.71 79.00,52.44 C79.00,53.71 75.90,52.88 75.47,51.50 ZM 87.00 48.42 C87.00,45.59 87.41,43.97 88.07,44.19 C88.67,44.39 89.12,44.88 89.07,45.28 C89.03,45.67 89.00,47.58 89.00,49.50 C89.00,51.42 88.55,53.00 88.00,53.00 C87.45,53.00 87.00,50.94 87.00,48.42 ZM 68.69 39.35 C67.56,38.22 67.91,33.00 69.12,33.00 C69.74,33.00 70.00,32.12 69.71,31.00 C68.83,27.64 71.63,28.71 73.39,32.40 C75.43,36.71 75.41,37.62 73.25,38.38 C72.29,38.72 71.02,39.24 70.44,39.52 C69.85,39.81 69.07,39.73 68.69,39.35 ZM 87.75 38.25 C87.02,36.77 88.20,26.00 89.09,26.00 C89.59,26.00 90.00,28.92 90.00,32.50 C90.00,38.11 88.97,40.74 87.75,38.25 ZM 28.00 32.08 C28.00,31.10 29.11,30.83 53.77,25.94 C68.06,23.10 72.62,22.71 70.83,24.50 C70.24,25.10 31.86,33.00 29.57,33.00 C28.71,33.00 28.00,32.59 28.00,32.08 Z" fill="rgb(253,254,253)"/>
</g>
</svg>